<?xml version="1.0" standalone="no"?>
<!DOCTYPE svg PUBLIC "-//W3C//DTD SVG 20010904//EN"
 "http://www.w3.org/TR/2001/REC-SVG-20010904/DTD/svg10.dtd">
<svg version="1.0" xmlns="http://www.w3.org/2000/svg"
 width="200.000000pt" height="200.000000pt" viewBox="0 0 200.000000 200.000000"
 preserveAspectRatio="xMidYMid meet">
<metadata>
Created by potrace 1.11, written by Peter Selinger 2001-2013
</metadata>
<g transform="translate(0.000000,200.000000) scale(0.100000,-0.100000)"
fill="#000000" stroke="none">
<path d="M1305 1513 c-19 -6 -44 -21 -57 -32 -12 -12 -27 -21 -32 -22 -6 0
-27 -2 -46 -3 -57 -4 -118 -26 -154 -56 -15 -12 -54 -15 -220 -16 -110 -1
-223 -5 -251 -8 -53 -8 -122 -42 -168 -85 -27 -25 -71 -96 -72 -116 0 -5 -17
-12 -38 -16 -62 -10 -118 -78 -113 -139 1 -14 -4 -37 -11 -52 -17 -36 -16 -73
3 -92 18 -19 65 -21 82 -4 15 15 16 84 2 93 -21 13 -3 112 22 117 29 5 31 0
30 -92 0 -110 17 -171 59 -215 29 -31 29 -33 29 -146 0 -157 0 -157 171 -159
134 -1 159 7 159 49 0 15 9 19 53 20 36 0 56 6 65 18 16 23 15 65 -3 89 -8 10
-15 29 -15 42 0 18 6 22 33 23 17 0 50 1 72 3 l40 2 0 -104 c0 -139 4 -141
168 -142 128 0 157 8 157 44 0 21 5 23 50 23 79 1 102 36 69 103 -32 66 -17
259 20 260 9 1 59 2 111 3 73 2 105 7 135 23 49 26 95 95 97 148 1 31 7 42 32
58 106 70 116 190 18 203 -21 2 -40 -3 -58 -17 -14 -12 -45 -25 -68 -29 -43
-8 -55 -2 -126 61 -14 12 -36 31 -50 42 l-24 19 38 33 c35 29 38 34 27 54 -6
12 -22 23 -34 24 -65 6 -171 2 -202 -9z"/>
</g>
</svg>
